<?xml version="1.0" encoding="UTF-8" standalone="no"?>
<svg width="15px" height="15px" viewBox="0 0 15 15" version="1.1" xmlns="http://www.w3.org/2000/svg" xmlns:xlink="http://www.w3.org/1999/xlink">
    <!-- Generator: Sketch 42 (36781) - http://www.bohemiancoding.com/sketch -->
    <title></title>
    <desc>Created with Sketch.</desc>
    <defs></defs>
    <g id="Page-1" stroke="none" stroke-width="1" fill="none" fill-rule="evenodd">
        <g id="linkedin" transform="translate(0.000000, -3.000000)" fill="#000000">
            <g id="linkedin-icon">
                <path d="M13.7890625,3 C14.1276059,3 14.4140613,3.11067598 14.6484375,3.33203125 C14.8828137,3.55338652 15,3.83333164 15,4.171875 L15,16.7109375 C15,17.0494809 14.8828137,17.348957 14.6484375,17.609375 C14.4140613,17.869793 14.1276059,18 13.7890625,18 L1.2890625,18 C0.950519141,18 0.651042969,17.869793 0.390625,17.609375 C0.130207031,17.348957 0,17.0494809 0,16.7109375 L0,4.171875 C0,3.83333164 0.12369668,3.55338652 0.37109375,3.33203125 C0.61849082,3.11067598 0.924477344,3 1.2890625,3 L13.7890625,3 Z M4.6484375,15.5 L4.6484375,8.8203125 L2.5,8.8203125 L2.5,15.5 L4.6484375,15.5 Z M3.6328125,7.8046875 C3.97135586,7.8046875 4.25130098,7.69401152 4.47265625,7.47265625 C4.69401152,7.25130098 4.8046875,6.98437656 4.8046875,6.671875 C4.8046875,6.33333164 4.70052187,6.05338652 4.4921875,5.83203125 C4.28385313,5.61067598 4.01041836,5.5 3.671875,5.5 C3.33333164,5.5 3.05338652,5.61067598 2.83203125,5.83203125 C2.61067598,6.05338652 2.5,6.33333164 2.5,6.671875 C2.5,6.98437656 2.60416562,7.25130098 2.8125,7.47265625 C3.02083438,7.69401152 3.29426914,7.8046875 3.6328125,7.8046875 Z M12.5,15.5 L12.5,11.59375 C12.5,10.6302035 12.2721377,9.90104414 11.8164062,9.40625 C11.3606748,8.91145586 10.7682328,8.6640625 10.0390625,8.6640625 C9.25780859,8.6640625 8.60677344,9.02864219 8.0859375,9.7578125 L8.0859375,8.8203125 L5.9375,8.8203125 L5.9375,15.5 L8.0859375,15.5 L8.0859375,11.7109375 C8.0859375,11.4505195 8.11197891,11.2682297 8.1640625,11.1640625 C8.37239687,10.6432266 8.73697656,10.3828125 9.2578125,10.3828125 C9.98698281,10.3828125 10.3515625,10.8645785 10.3515625,11.828125 L10.3515625,15.5 L12.5,15.5 Z" id=""></path>
            </g>
        </g>
    </g>
</svg>